PathFileType	4	(X/Y/Z)	OpenSim_Sub11_CSPreOp_Magnet.trc
DataRate	CameraRate	NumFrames	NumMarkers	Units	OrigDataRate	OrigDataStartFrame	OrigNumFrames
100	100	30	8	m	100	926	3701
Frame#	Time	torso_imu_offset_imu	pelvis_imu_offset_imu	tibia_r_imu_offset_imu	femur_r_imu_offset_imu	tibia_l_imu_offset_imu	femur_l_imu_offset_imu	toes_r_imu_offset_imu	toes_l_imu_offset_imu
				X1	Y1	Z1	X2	Y2	Z2	X3	Y3	Z3	X4	Y4	Z4	X5	Y5	Z5	X6	Y6	Z6	X7	Y7	Z7	X8		Y8	Z8	

926	9.25000000	-0.92407200	-0.24243200	-0.01147500	-0.52392600	0.18042000	-0.64331100	-0.72168000	-0.36108400	-0.28955100	-0.64721700	-0.50683600	-0.04272500	-0.64062500	0.53125000	0.24462900	-0.63916000	0.35571300	0.59765600	-0.55615200	-0.27807600	-0.45336900	-0.79785200	-0.04370100	-0.23437500
927	9.26000000	-0.92627000	-0.24462900	-0.01367200	-0.51879900	0.16918900	-0.63842800	-0.71948200	-0.36938500	-0.28466800	-0.63818400	-0.51806600	-0.04736300	-0.63037100	0.52978500	0.24902300	-0.63330100	0.34887700	0.60009800	-0.55835000	-0.28808600	-0.44702100	-0.79077100	-0.05249000	-0.22558600
928	9.27000000	-0.92407200	-0.24023400	-0.00683600	-0.52832000	0.17334000	-0.64111300	-0.71704100	-0.37768600	-0.28222700	-0.64770500	-0.51245100	-0.06567400	-0.63696300	0.53881800	0.23950200	-0.64502000	0.35400400	0.59155300	-0.57324200	-0.27832000	-0.45190400	-0.79907200	-0.04589800	-0.23510700
929	9.28000000	-0.92211900	-0.23584000	-0.02490200	-0.52954100	0.16650400	-0.63378900	-0.71289100	-0.37573200	-0.27783200	-0.64404300	-0.51831100	-0.06250000	-0.62817400	0.54052700	0.24536100	-0.64209000	0.34814500	0.59790000	-0.57373000	-0.28222700	-0.43774400	-0.79565400	-0.04858400	-0.22705100
930	9.29000000	-0.92627000	-0.24023400	-0.02710000	-0.52490200	0.16650400	-0.64062500	-0.71923800	-0.37353500	-0.26904300	-0.63696300	-0.51318400	-0.06933600	-0.61474600	0.54809600	0.23999000	-0.63818400	0.35034200	0.59204100	-0.56738300	-0.28222700	-0.44018600	-0.78515600	-0.04418900	-0.22802700
931	9.30000000	-0.93090800	-0.23828100	-0.03173800	-0.53076200	0.16357400	-0.62866200	-0.71899400	-0.38208000	-0.26416000	-0.63452100	-0.51879900	-0.06201200	-0.60791000	0.55273400	0.24585000	-0.63769500	0.34545900	0.59594700	-0.57226600	-0.28637700	-0.43579100	-0.78564500	-0.04321300	-0.21777300
932	9.31000000	-0.92431600	-0.23803700	-0.02710000	-0.53125000	0.16259800	-0.63403300	-0.71655300	-0.39453100	-0.26367200	-0.63061500	-0.52124000	-0.06274400	-0.60229500	0.55908200	0.23901400	-0.63793900	0.34399400	0.58520500	-0.57299800	-0.28857400	-0.43701200	-0.78393600	-0.03833000	-0.22485400
933	9.32000000	-0.92407200	-0.24023400	-0.03173800	-0.52734400	0.16821300	-0.63403300	-0.71240200	-0.39453100	-0.25708000	-0.62915000	-0.52221700	-0.05883800	-0.59619100	0.57104500	0.24194300	-0.64062500	0.34277300	0.58911100	-0.57690400	-0.28564500	-0.43457000	-0.78588900	-0.03002900	-0.21826200
934	9.33000000	-0.92846700	-0.24047900	-0.02929700	-0.53613300	0.16162100	-0.62915000	-0.71386700	-0.40698200	-0.25219700	-0.62793000	-0.53295900	-0.05273400	-0.59277300	0.57202100	0.24096700	-0.64794900	0.33667000	0.58471700	-0.57910200	-0.29248000	-0.43505900	-0.78857400	-0.02905300	-0.21362300
935	9.34000000	-0.92187500	-0.24243200	-0.04296900	-0.53051800	0.17065400	-0.62744100	-0.71411100	-0.40283200	-0.24560500	-0.62036100	-0.52783200	-0.04516600	-0.58154300	0.59130900	0.23852500	-0.64575200	0.34350600	0.58374000	-0.57348600	-0.28369100	-0.43652300	-0.78466800	-0.01489300	-0.20336900
936	9.35000000	-0.92627000	-0.24462900	-0.04736300	-0.53662100	0.16235400	-0.62158200	-0.71386700	-0.40918000	-0.24536100	-0.61572300	-0.54443400	-0.03857400	-0.57543900	0.59057600	0.23608400	-0.64794900	0.33154300	0.58520500	-0.57666000	-0.29467800	-0.43261700	-0.79028300	-0.01953100	-0.19311500
937	9.36000000	-0.92627000	-0.24023400	-0.04516600	-0.54003900	0.16479500	-0.62377900	-0.71606400	-0.40698200	-0.25000000	-0.61328100	-0.54272500	-0.03686500	-0.56884800	0.60449200	0.23388700	-0.65405300	0.33056600	0.57666000	-0.57861300	-0.29174800	-0.43725600	-0.79418900	-0.01098600	-0.18530300
938	9.37000000	-0.92871100	-0.23608400	-0.04077100	-0.54663100	0.16552700	-0.62158200	-0.71191400	-0.40918000	-0.23877000	-0.61328100	-0.55151400	-0.03393600	-0.56518600	0.61450200	0.23168900	-0.66455100	0.32568400	0.57055700	-0.58325200	-0.29150400	-0.44140600	-0.79907200	-0.00903300	-0.17407200
939	9.38000000	-0.92651400	-0.23608400	-0.05419900	-0.54272500	0.16601600	-0.61792000	-0.71167000	-0.41552700	-0.24072300	-0.60278300	-0.54785200	-0.02758800	-0.55004900	0.62744100	0.23144500	-0.66137700	0.32934600	0.56787100	-0.57666000	-0.28613300	-0.43823200	-0.79638700	-0.00317400	-0.15698200
940	9.39000000	-0.92675800	-0.23168900	-0.05200200	-0.55346700	0.16455100	-0.61938500	-0.70752000	-0.41552700	-0.23388700	-0.60864300	-0.54834000	-0.02710000	-0.54711900	0.63598600	0.23291000	-0.67749000	0.32568400	0.55810500	-0.58325200	-0.29101600	-0.43920900	-0.80419900	-0.00073200	-0.14184600
941	9.40000000	-0.92895500	-0.23168900	-0.05859400	-0.55835000	0.15307600	-0.61669900	-0.70922900	-0.42382800	-0.24047900	-0.60888700	-0.56103500	-0.02441400	-0.53784200	0.63696300	0.23071300	-0.68335000	0.31176800	0.55444300	-0.58911100	-0.29907200	-0.43896500	-0.81103500	-0.00927700	-0.12475600
942	9.41000000	-0.93335000	-0.23168900	-0.05200200	-0.54492200	0.15014600	-0.62304700	-0.70703100	-0.42578100	-0.23144500	-0.59350600	-0.56372100	-0.03125000	-0.51806600	0.64331100	0.22558600	-0.68042000	0.30737300	0.54077100	-0.57299800	-0.30224600	-0.44677700	-0.80273400	-0.00878900	-0.11230500
943	9.42000000	-0.92895500	-0.22949200	-0.05419900	-0.55273400	0.14892600	-0.61303700	-0.70678700	-0.43212900	-0.23339800	-0.60058600	-0.56274400	-0.02417000	-0.51342800	0.65307600	0.23535200	-0.69287100	0.30468800	0.53857400	-0.58203100	-0.29931600	-0.44116200	-0.81103500	-0.00634800	-0.08252000
944	9.43000000	-0.93090800	-0.23608400	-0.05859400	-0.55737300	0.14379900	-0.62207000	-0.70703100	-0.42993200	-0.23120100	-0.60229500	-0.56713900	-0.03393600	-0.50659200	0.65795900	0.22778300	-0.70190400	0.29467800	0.52319300	-0.58667000	-0.30590800	-0.44482400	-0.81738300	-0.00585900	-0.06860400
945	9.44000000	-0.93530300	-0.23388700	-0.06079100	-0.55664100	0.13452100	-0.62231400	-0.70263700	-0.43408200	-0.23779300	-0.59790000	-0.57373000	-0.03491200	-0.49194300	0.66210900	0.22680700	-0.70776400	0.28271500	0.51318400	-0.58569300	-0.31323200	-0.44702100	-0.81835900	-0.01049800	-0.04785200
946	9.45000000	-0.93090800	-0.23608400	-0.05200200	-0.55615200	0.12377900	-0.61987300	-0.70434600	-0.44262700	-0.22851600	-0.59350600	-0.57861300	-0.03466800	-0.47851600	0.66479500	0.22607400	-0.71337900	0.26806600	0.50610400	-0.58422900	-0.32055700	-0.44628900	-0.81982400	-0.01440400	-0.01928700
947	9.46000000	-0.92871100	-0.23388700	-0.05200200	-0.56030300	0.13159200	-0.62500000	-0.69799800	-0.44458000	-0.23291000	-0.59545900	-0.56933600	-0.03759800	-0.47021500	0.68481400	0.22314500	-0.72412100	0.27075200	0.49438500	-0.58911100	-0.30981400	-0.45019500	-0.82177700	-0.00097700	0.00585900
948	9.47000000	-0.93090800	-0.23608400	-0.05419900	-0.56103500	0.11499000	-0.61816400	-0.69824200	-0.44262700	-0.23315400	-0.59082000	-0.58081100	-0.02587900	-0.45800800	0.68652300	0.23217800	-0.72998000	0.24902300	0.48877000	-0.58935500	-0.32055700	-0.44165000	-0.82080100	-0.00830100	0.04077100
949	9.48000000	-0.93115200	-0.23168900	-0.05639600	-0.56152300	0.11669900	-0.62622100	-0.70043900	-0.43627900	-0.22656200	-0.59008800	-0.58178700	-0.03344700	-0.44409200	0.69726600	0.21948200	-0.73681600	0.24292000	0.47363300	-0.59521500	-0.32104500	-0.45019500	-0.82251000	0.00317400	0.06372100
950	9.49000000	-0.93115200	-0.23168900	-0.04980500	-0.56103500	0.11865200	-0.62231400	-0.69580100	-0.44873000	-0.21948200	-0.58862300	-0.57641600	-0.02612300	-0.43237300	0.71069300	0.22314500	-0.74365200	0.23584000	0.46875000	-0.59521500	-0.31811500	-0.44287100	-0.82080100	0.01440400	0.10400400
951	9.50000000	-0.92871100	-0.23388700	-0.04516600	-0.56909200	0.12329100	-0.61816400	-0.69604500	-0.44458000	-0.22631800	-0.59228500	-0.57299800	-0.01684600	-0.42651400	0.72778300	0.22998000	-0.75683600	0.22924800	0.46606400	-0.60180700	-0.31396500	-0.43676800	-0.82519500	0.02978500	0.14038100
952	9.51000000	-0.93310500	-0.23388700	-0.05200200	-0.56152300	0.10742200	-0.62109400	-0.68945300	-0.45092800	-0.22168000	-0.58105500	-0.58691400	-0.01586900	-0.40551800	0.72509800	0.22534200	-0.75634800	0.20385700	0.44848600	-0.59619100	-0.32666000	-0.44140600	-0.81152300	0.03051800	0.17285200
953	9.52000000	-0.93335000	-0.22949200	-0.04736300	-0.56274400	0.11474600	-0.61645500	-0.69555700	-0.45727500	-0.22363300	-0.58129900	-0.58300800	-0.01269500	-0.39404300	0.73608400	0.22216800	-0.76220700	0.19921900	0.43701200	-0.59594700	-0.32275400	-0.43872100	-0.80542000	0.04565400	0.20361300
954	9.53000000	-0.93335000	-0.22949200	-0.04296900	-0.56079100	0.10913100	-0.62036100	-0.68920900	-0.46142600	-0.21679700	-0.57690400	-0.58789100	-0.00854500	-0.37963900	0.74096700	0.21752900	-0.76904300	0.18310500	0.42675800	-0.59814500	-0.32788100	-0.43969700	-0.79907200	0.05419900	0.23266600
955	9.54000000	-0.92700200	-0.22509800	-0.04077100	-0.55908200	0.10937500	-0.62622100	-0.69116200	-0.46337900	-0.21215800	-0.57275400	-0.59057600	-0.01049800	-0.36962900	0.74877900	0.20947300	-0.77197300	0.16943400	0.41064500	-0.60107400	-0.32763700	-0.44458000	-0.79126000	0.06396500	0.25537100
